<?xml version="1.0" encoding="UTF-8" standalone="no"?>
<!-- Created with Inkscape (http://www.inkscape.org/) -->

<svg
   width="210mm"
   height="297mm"
   viewBox="0 0 210 297"
   version="1.1"
   id="svg5"
   inkscape:version="1.1.2 (0a00cf5339, 2022-02-04)"
   sodipodi:docname="example.svg"
   xmlns:inkscape="http://www.inkscape.org/namespaces/inkscape"
   xmlns:sodipodi="http://sodipodi.sourceforge.net/DTD/sodipodi-0.dtd"
   xmlns="http://www.w3.org/2000/svg"
   xmlns:svg="http://www.w3.org/2000/svg">
  <sodipodi:namedview
     id="namedview7"
     pagecolor="#ffffff"
     bordercolor="#666666"
     borderopacity="1.0"
     inkscape:pageshadow="2"
     inkscape:pageopacity="0.0"
     inkscape:pagecheckerboard="0"
     inkscape:document-units="mm"
     showgrid="false"
     inkscape:zoom="1.1326109"
     inkscape:cx="66.218681"
     inkscape:cy="285.62324"
     inkscape:window-width="1850"
     inkscape:window-height="1136"
     inkscape:window-x="0"
     inkscape:window-y="0"
     inkscape:window-maximized="1"
     inkscape:current-layer="layer1" />
  <defs
     id="defs2">
    <inkscape:path-effect
       effect="fillet_chamfer"
       id="path-effect1013"
       is_visible="true"
       lpeversion="1"
       satellites_param="F,0,0,1,0,6.8791667,0,1 @ F,0,0,1,0,6.8791667,0,1 @ F,0,0,1,0,6.8791667,0,1 @ F,0,0,1,0,6.8791667,0,1 @ F,0,0,1,0,6.8791667,0,1 @ F,0,0,1,0,6.8791667,0,1 @ F,0,0,1,0,6.8791667,0,1 @ F,0,0,1,0,6.8791667,0,1 @ F,0,0,1,0,6.8791667,0,1 @ F,0,0,1,0,6.8791667,0,1"
       unit="px"
       method="auto"
       mode="F"
       radius="26"
       chamfer_steps="1"
       flexible="false"
       use_knot_distance="true"
       apply_no_radius="true"
       apply_with_radius="true"
       only_selected="false"
       hide_knots="false" />
    <inkscape:perspective
       sodipodi:type="inkscape:persp3d"
       inkscape:vp_x="44.874021 : 161.77076 : 1"
       inkscape:vp_y="0 : 1000 : 0"
       inkscape:vp_z="254.87402 : 161.77076 : 1"
       inkscape:persp3d-origin="149.87402 : 112.27076 : 1"
       id="perspective8812" />
    <inkscape:perspective
       sodipodi:type="inkscape:persp3d"
       inkscape:vp_x="7.6195313 : 138.36192 : 1"
       inkscape:vp_y="0 : 1000 : 0"
       inkscape:vp_z="217.61953 : 138.36192 : 1"
       inkscape:persp3d-origin="112.61953 : 88.861916 : 1"
       id="perspective8688" />
  </defs>
  <g
     inkscape:label="Layer 1"
     inkscape:groupmode="layer"
     id="layer1">
    <path
       id="path9078"
       style="stroke:#ff0000;stroke-width:5.91496;stroke-linecap:round"
       inkscape:transform-center-x="-2.573017"
       inkscape:transform-center-y="-1.4661059"
       transform="scale(0.26458333)"
       d="m 258.45809,350.48725 6.40269,-24.69946 a 13.084953,13.084953 76.800255 0 0 -2.78079,-11.85619 l -16.71704,-19.27689 a 3.3950723,3.3950723 112.80025 0 1 2.35959,-5.61318 l 25.46913,-1.54324 a 13.084956,13.084956 148.80025 0 0 10.41659,-6.30845 l 13.16757,-21.85574 a 3.3950716,3.3950716 4.8002618 0 1 6.0676,0.50954 l 9.3381,23.74569 a 13.084951,13.084951 40.80026 0 0 9.21859,7.95735 l 24.85506,5.76931 a 3.3950716,3.3950716 76.800259 0 1 1.39039,5.92809 l -19.69787,16.21888 a 13.084953,13.084953 112.80026 0 0 -4.71919,11.22637 l 2.1937,25.42135 a 3.3950724,3.3950724 148.80026 0 1 -5.2083,3.15423 l -21.51204,-13.72187 a 13.084955,13.084955 4.8002562 0 0 -12.13522,-1.01908 l -23.49926,9.94197 a 3.3950721,3.3950721 40.800257 0 1 -4.6093,-3.97868 z"
       inkscape:path-effect="#path-effect1013"
       inkscape:original-d="m 256.7319,357.14632 9.85507,-38.0176 -25.731,-29.67113 39.20227,-2.37536 20.26761,-33.64052 14.37326,36.54955 38.25708,8.88015 -30.31911,24.96422 3.37656,39.12875 -33.1115,-21.12081 z" />
  </g>
</svg>
